# xmcd CD database file
#
# Track frame offsets:
#	150
#	13970
#	25915
#	38017
#	51527
#	64612
#	77587
#	89922
#	102755
#	116705
#	129865
#	146092
#	158067
#	172480
#	186110
#	234970
#
# Disc length: 3790 seconds
#
# Revision: 2
# Processed by: cddbd v1.5.2PL0 Copyright (c) Steve Scherf et al.
# Submitted via: CDex 1.51
#
DISCID=dc0ecc10
DTITLE=Buddy Guy - This Is The Beginning - The Artistic and U.S.A. Sessions 1958-1963
DYEAR=1900
DGENRE=Blues
TTITLE0=Sit And Cry
TTITLE1=Try To Quit You Baby 
TTITLE2=You Sure Can't Do
TTITLE3=This Is The End
TTITLE4=Too Many Cooks (Vocal by Jesse Fortune)
TTITLE5=Too Many Cooks (Alt.Take Vocal by Jesse Fortune)
TTITLE6=Good Things (Vocal by Jesse Fortune)
TTITLE7=God's Gift To Man (Vocal by Jesse Fortune and Willie Dixon)
TTITLE8=God's Gift To Man (Alt.Take Vocal by Jesse Fortune and Willie Dixon)
TTITLE9=Heavy Heart Beat (Vocal by Jesse Fortune)
TTITLE10=Heavy Heart Beat (Alt.Take Vocal by Jesse Fortune)
TTITLE11=Baby Don't You Wanna Come Home
TTITLE12=The Way You Been Tratin' Me
TTITLE13=I Hope You Come Back Home
TTITLE14=You Sure Can't Do (In A Session)
TTITLE15=This Is The End (In A Session)
EXTD=
EXTT0=
EXTT1=
EXTT2=
EXTT3=
EXTT4=
EXTT5=
EXTT6=
EXTT7=
EXTT8=
EXTT9=
EXTT10=
EXTT11=
EXTT12=
EXTT13=
EXTT14=
EXTT15=
PLAYORDER=
